<?xml version="1.0" encoding="UTF-8" standalone="no"?>
<!-- Created with Inkscape (http://www.inkscape.org/) -->

<svg
   xmlns:dc="http://purl.org/dc/elements/1.1/"
   xmlns:cc="http://creativecommons.org/ns#"
   xmlns:rdf="http://www.w3.org/1999/02/22-rdf-syntax-ns#"
   xmlns:svg="http://www.w3.org/2000/svg"
   xmlns="http://www.w3.org/2000/svg"
   xmlns:sodipodi="http://sodipodi.sourceforge.net/DTD/sodipodi-0.dtd"
   xmlns:inkscape="http://www.inkscape.org/namespaces/inkscape"
   version="1.1"
   id="svg2"
   xml:space="preserve"
   width="164.248"
   height="138.78799"
   viewBox="0 0 164.248 138.78799"
   sodipodi:docname="ux_1.svg"
   inkscape:version="0.92.4 5da689c313, 2019-01-14"><metadata
     id="metadata8"><rdf:RDF><cc:Work
         rdf:about=""><dc:format>image/svg+xml</dc:format><dc:type
           rdf:resource="http://purl.org/dc/dcmitype/StillImage" /><dc:title /></cc:Work></rdf:RDF></metadata><defs
     id="defs6"><marker
       inkscape:stockid="DotM"
       orient="auto"
       refY="0.0"
       refX="0.0"
       id="DotM"
       style="overflow:visible"
       inkscape:isstock="true"><path
         id="path989"
         d="M -2.5,-1.0 C -2.5,1.7600000 -4.7400000,4.0 -7.5,4.0 C -10.260000,4.0 -12.5,1.7600000 -12.5,-1.0 C -12.5,-3.7600000 -10.260000,-6.0 -7.5,-6.0 C -4.7400000,-6.0 -2.5,-3.7600000 -2.5,-1.0 z "
         style="fill-rule:evenodd;stroke:#000000;stroke-width:1pt;stroke-opacity:1;fill:#000000;fill-opacity:1"
         transform="scale(0.4) translate(7.4, 1)" /></marker><marker
       inkscape:stockid="ExperimentalArrow"
       orient="auto-start-reverse"
       refY="3.0"
       refX="5.0"
       id="ExperimentalArrow"
       inkscape:isstock="true"><path
         id="path1178"
         d="m 10,3 -10,3 0,-6 z"
         style="fill:context-stroke;stroke:#000000;stroke-opacity:1" /></marker><marker
       inkscape:stockid="Arrow1Mend"
       orient="auto"
       refY="0.0"
       refX="0.0"
       id="Arrow1Mend"
       style="overflow:visible;"
       inkscape:isstock="true"><path
         id="path934"
         d="M 0.0,0.0 L 5.0,-5.0 L -12.5,0.0 L 5.0,5.0 L 0.0,0.0 z "
         style="fill-rule:evenodd;stroke:#000000;stroke-width:1pt;stroke-opacity:1;fill:#000000;fill-opacity:1"
         transform="scale(0.4) rotate(180) translate(10,0)" /></marker><clipPath
       clipPathUnits="userSpaceOnUse"
       id="clipPath76"><path
         d="M -8.9619,-7.26778 H 98.57552 V 79.94118 H -8.9619 Z"
         id="path74"
         inkscape:connector-curvature="0" /></clipPath><marker
       inkscape:stockid="DotM"
       orient="auto"
       refY="0"
       refX="0"
       id="DotM-6"
       style="overflow:visible"
       inkscape:isstock="true"><path
         inkscape:connector-curvature="0"
         id="path989-7"
         d="m -2.5,-1 c 0,2.76 -2.24,5 -5,5 -2.76,0 -5,-2.24 -5,-5 0,-2.76 2.24,-5 5,-5 2.76,0 5,2.24 5,5 z"
         style="fill:#000000;fill-opacity:1;fill-rule:evenodd;stroke:#000000;stroke-width:1.00000003pt;stroke-opacity:1"
         transform="matrix(0.4,0,0,0.4,2.96,0.4)" /></marker><marker
       inkscape:stockid="ExperimentalArrow"
       orient="auto-start-reverse"
       refY="3"
       refX="5"
       id="ExperimentalArrow-5"
       inkscape:isstock="true"><path
         inkscape:connector-curvature="0"
         id="path1178-3"
         d="M 10,3 0,6 V 0 Z"
         style="fill:context-stroke;stroke:#000000;stroke-opacity:1" /></marker><marker
       inkscape:stockid="DotM"
       orient="auto"
       refY="0"
       refX="0"
       id="DotM-6-6"
       style="overflow:visible"
       inkscape:isstock="true"><path
         inkscape:connector-curvature="0"
         id="path989-7-2"
         d="m -2.5,-1 c 0,2.76 -2.24,5 -5,5 -2.76,0 -5,-2.24 -5,-5 0,-2.76 2.24,-5 5,-5 2.76,0 5,2.24 5,5 z"
         style="fill:#000000;fill-opacity:1;fill-rule:evenodd;stroke:#000000;stroke-width:1.00000003pt;stroke-opacity:1"
         transform="matrix(0.4,0,0,0.4,2.96,0.4)" /></marker><marker
       inkscape:stockid="ExperimentalArrow"
       orient="auto-start-reverse"
       refY="3"
       refX="5"
       id="ExperimentalArrow-5-9"
       inkscape:isstock="true"><path
         inkscape:connector-curvature="0"
         id="path1178-3-1"
         d="M 10,3 0,6 V 0 Z"
         style="fill:context-stroke;stroke:#000000;stroke-opacity:1" /></marker><marker
       inkscape:stockid="DotM"
       orient="auto"
       refY="0"
       refX="0"
       id="DotM-6-7"
       style="overflow:visible"
       inkscape:isstock="true"><path
         inkscape:connector-curvature="0"
         id="path989-7-0"
         d="m -2.5,-1 c 0,2.76 -2.24,5 -5,5 -2.76,0 -5,-2.24 -5,-5 0,-2.76 2.24,-5 5,-5 2.76,0 5,2.24 5,5 z"
         style="fill:#000000;fill-opacity:1;fill-rule:evenodd;stroke:#000000;stroke-width:1.00000003pt;stroke-opacity:1"
         transform="matrix(0.4,0,0,0.4,2.96,0.4)" /></marker><marker
       inkscape:stockid="ExperimentalArrow"
       orient="auto-start-reverse"
       refY="3"
       refX="5"
       id="ExperimentalArrow-5-93"
       inkscape:isstock="true"><path
         inkscape:connector-curvature="0"
         id="path1178-3-6"
         d="M 10,3 0,6 V 0 Z"
         style="fill:context-stroke;stroke:#000000;stroke-opacity:1" /></marker><marker
       inkscape:stockid="DotM"
       orient="auto"
       refY="0"
       refX="0"
       id="DotM-6-7-6"
       style="overflow:visible"
       inkscape:isstock="true"><path
         inkscape:connector-curvature="0"
         id="path989-7-0-2"
         d="m -2.5,-1 c 0,2.76 -2.24,5 -5,5 -2.76,0 -5,-2.24 -5,-5 0,-2.76 2.24,-5 5,-5 2.76,0 5,2.24 5,5 z"
         style="fill:#000000;fill-opacity:1;fill-rule:evenodd;stroke:#000000;stroke-width:1.00000003pt;stroke-opacity:1"
         transform="matrix(0.4,0,0,0.4,2.96,0.4)" /></marker><marker
       inkscape:stockid="ExperimentalArrow"
       orient="auto-start-reverse"
       refY="3"
       refX="5"
       id="ExperimentalArrow-5-93-6"
       inkscape:isstock="true"><path
         inkscape:connector-curvature="0"
         id="path1178-3-6-1"
         d="M 10,3 0,6 V 0 Z"
         style="fill:context-stroke;stroke:#000000;stroke-opacity:1" /></marker></defs><sodipodi:namedview
     pagecolor="#ffffff"
     bordercolor="#666666"
     borderopacity="1"
     objecttolerance="10"
     gridtolerance="10"
     guidetolerance="10"
     inkscape:pageopacity="0"
     inkscape:pageshadow="2"
     inkscape:window-width="1920"
     inkscape:window-height="1007"
     id="namedview4"
     showgrid="true"
     inkscape:zoom="5.6568543"
     inkscape:cx="66.620577"
     inkscape:cy="62.786829"
     inkscape:window-x="0"
     inkscape:window-y="0"
     inkscape:window-maximized="1"
     inkscape:current-layer="g12"><inkscape:grid
       type="xygrid"
       id="grid931" /></sodipodi:namedview><g
     id="g10"
     inkscape:groupmode="layer"
     inkscape:label="ux"
     transform="matrix(1.3333333,0,0,-1.3333333,0,138.788)"><g
       id="g12"
       transform="translate(0.199,0.199)"><g
         id="g14"><g
           id="g16"><g
             id="g18" /><g
             id="g20" /><g
             id="g22"><g
               id="g24" /></g><g
             id="g26" /><g
             id="g28" /><g
             id="g30" /><g
             id="g32" /><g
             id="g34"
             transform="translate(-0.199,-0.199)"><g
               id="g36"
               transform="translate(9.161,7.467)"><g
                 id="g38"><g
                   id="g40"><g
                     id="g42"><g
                       id="g44"><g
                         id="g46" /></g><g
                       id="g48"><g
                         id="g50" /></g><g
                       id="g52"><path
                         d="M -8.9619,0 H 96.583"
                         style="fill:none;stroke:#999999;stroke-width:0.3985;stroke-linecap:butt;stroke-linejoin:miter;stroke-miterlimit:10;stroke-dasharray:none;stroke-opacity:1"
                         id="path54"
                         inkscape:connector-curvature="0" /><g
                         id="g56"
                         transform="translate(96.583)"><g
                           id="g58"><path
                             d="M 1.99252,0 -1.19551,1.59401 0,0 -1.19551,-1.59401"
                             style="fill:#999999;fill-opacity:1;fill-rule:nonzero;stroke:none"
                             id="path60"
                             inkscape:connector-curvature="0" /></g></g></g><g
                       id="g62"><path
                         d="M 0,-7.26778 V 77.94865"
                         style="fill:none;stroke:#999999;stroke-width:0.3985;stroke-linecap:butt;stroke-linejoin:miter;stroke-miterlimit:10;stroke-dasharray:none;stroke-opacity:1"
                         id="path64"
                         inkscape:connector-curvature="0" /><g
                         id="g66"
                         transform="rotate(90,-38.974325,38.974325)"><g
                           id="g68"><path
                             d="M 1.99252,0 -1.19551,1.59401 0,0 -1.19551,-1.59401"
                             style="fill:#999999;fill-opacity:1;fill-rule:nonzero;stroke:none"
                             id="path70"
                             inkscape:connector-curvature="0" /></g></g></g><g
                       id="g72"
                       clip-path="url(#clipPath76)"><g
                         id="g78"><path
                           d="m 0,10.91896 0.10887,8e-5 0.10889,2.9e-4 0.10888,4.5e-4 0.10889,6.5e-4 0.10889,8e-4 0.10888,0.001 0.10889,0.0012 0.10889,0.0014 0.10887,0.0016 0.1089,0.0017 0.10889,0.0019 0.10887,0.0021 0.1089,0.0023 0.10889,0.0025 0.10887,0.0026 0.1089,0.0028 0.10889,0.003 0.10887,0.0032 0.1089,0.0034 0.10889,0.0036 0.10887,0.0037 0.10891,0.0039 0.10888,0.0041 0.10887,0.0043 0.1089,0.0045 0.10889,0.0046 0.10887,0.0048 0.1089,0.005 0.10887,0.0052 0.10889,0.0054 0.1089,0.0056 0.10889,0.0057 0.10887,0.0059 0.1089,0.0061 0.10887,0.0063 0.10889,0.0065 0.10891,0.0067 0.10886,0.0068 0.10889,0.007 0.1089,0.0072 0.10887,0.0074 0.10889,0.0076 0.1089,0.0078 0.10888,0.0079 0.10888,0.0081 0.1089,0.0083 0.10888,0.0085 0.10888,0.0087 0.1089,0.0088 0.10887,0.009 0.10889,0.0092 0.10891,0.0094 0.10887,0.0096 0.10888,0.0097 0.1089,0.0099 0.10888,0.01012 0.10888,0.0103 0.1089,0.01048 0.10888,0.01068 0.10888,0.01084 0.1089,0.01103 0.10888,0.01121 0.10888,0.0114 0.10889,0.01158 0.10888,0.01177 0.1089,0.01195 0.1089,0.01211 0.10887,0.01232 0.10888,0.01248 0.10889,0.01267 0.10889,0.01287 0.10888,0.01305 0.10889,0.0132 0.10889,0.01341 0.10888,0.01358 0.10889,0.01376 0.10889,0.01395 0.10888,0.01413 0.10889,0.01433 0.10888,0.01449 0.1089,0.01468 0.10888,0.01485 0.10889,0.01504 0.10888,0.01525 0.10889,0.01539 0.10889,0.0156 0.10888,0.01577 0.10889,0.01595 0.10889,0.01613 0.10887,0.01633 0.1089,0.01649 0.10889,0.01669 0.10888,0.01688 0.10889,0.01704 0.10889,0.01724 0.10887,0.01742 0.1089,0.01759 0.10889,0.01778 0.10887,0.01796 0.1089,0.01814 0.10889,0.01834 0.10887,0.01849 0.1089,0.0187 0.10887,0.01887 0.10889,0.01906 0.10892,0.01922 0.10885,0.01944 0.10891,0.01959 0.10888,0.0198 0.10889,0.01996 0.10889,0.02014 0.10888,0.02034 0.10889,0.02051 0.10887,0.0207 0.1089,0.02088 0.10889,0.02105 0.10887,0.02126 0.1089,0.02141 0.10887,0.02162 0.10889,0.02179 0.1089,0.02197 0.10887,0.02216 0.10889,0.02233 0.10888,0.02253 0.1089,0.02269 0.1089,0.02288 0.10888,0.02308 0.10889,0.02323 0.10887,0.02344 0.1089,0.02363 0.10889,0.02378 0.10887,0.02399 0.1089,0.02415 0.10887,0.02434 0.10889,0.02454 0.1089,0.0247 0.10887,0.02489 0.10889,0.02507 0.10889,0.02527 0.10889,0.02543 0.1089,0.02562 0.10887,0.02581 0.10889,0.02598 0.10888,0.02615 0.1089,0.02636 0.10889,0.02653 0.10887,0.02672 0.1089,0.02689 0.10888,0.02708 0.10888,0.02727 0.1089,0.02743 0.10888,0.02762 0.10888,0.02783 0.10889,0.02797 0.10889,0.02818 0.10888,0.02836 0.10889,0.02853 0.10889,0.02873 0.10887,0.02888 0.1089,0.0291 0.1089,0.02927 0.10887,0.02943 0.1089,0.02965 0.10888,0.02982 0.10888,0.02998 0.1089,0.03019 0.10888,0.03036 0.10888,0.03055 0.10889,0.03071 0.10889,0.03092 0.10888,0.03108 0.10889,0.03128 0.10889,0.03145 0.10887,0.03163 0.1089,0.03182 0.10889,0.03202 0.10887,0.03217 0.1089,0.03238 0.10889,0.03255 0.10888,0.03273 0.10891,0.03291 0.10887,0.0331 0.10888,0.03327 0.10889,0.03345 0.10889,0.03365 0.10888,0.03383 0.10889,0.034 0.10889,0.03419 0.10887,0.03438 0.1089,0.03454 0.10889,0.03476 0.10887,0.0349 0.1089,0.03513 0.10887,0.03527 0.10889,0.03545 0.10892,0.03568 0.10887,0.03582 0.10887,0.03601 0.1089,0.0362 0.10889,0.03636 0.10888,0.03657 0.10889,0.03673 0.10889,0.03694 0.10887,0.0371 0.1089,0.0373 0.10889,0.03748 0.10887,0.03764 0.1089,0.03783 0.10887,0.03802 0.10889,0.03821 0.1089,0.03838 0.10887,0.03857 0.10889,0.03874 0.10889,0.03895 0.1089,0.0391 0.10889,0.03931 0.10888,0.03947 0.10889,0.03966 0.10887,0.03984 0.1089,0.04003 0.10889,0.0402 0.10887,0.04039 0.10891,0.04058 0.10886,0.04075 0.10889,0.04094 0.1089,0.04112 0.10887,0.04129 0.10889,0.04151 0.10889,0.04164 0.10888,0.04185 0.10889,0.04204 0.1089,0.04221 0.10887,0.0424 0.10889,0.04259 0.1089,0.04274 0.10889,0.04295 0.10887,0.04312 0.10891,0.04329 0.10886,0.04351 0.10889,0.04367 0.1089,0.04385 0.10887,0.04405 0.10889,0.04422 0.10889,0.04439 0.10889,0.04459 0.10888,0.04477 0.10889,0.04495 0.10889,0.04512 0.10887,0.04532 0.10891,0.0455 0.10889,0.04569 0.10887,0.04583 0.10891,0.04605 0.10887,0.04622 0.10888,0.04642 0.1089,0.04658 0.10888,0.04677 0.10888,0.04697 0.10889,0.04712 0.10889,0.04733 0.10888,0.0475 0.10889,0.04768 0.10889,0.04787 0.10887,0.04804 0.1089,0.04823 0.10888,0.04843 0.1089,0.04857 0.10888,0.04881 0.10887,0.04895 0.1089,0.04913 0.10891,0.04934 0.10887,0.0495 0.10888,0.0497 0.10889,0.04986 0.10889,0.05006 0.10888,0.05022 0.10889,0.05043 0.10889,0.05062 0.10887,0.05076 0.1089,0.05098 0.10888,0.05115 0.10888,0.05133 0.1089,0.05151 0.10887,0.05168 0.10889,0.0519 0.1089,0.05205 0.10889,0.05224 0.10888,0.05242 0.10889,0.05261 0.10889,0.05278 0.10888,0.05299 0.10889,0.05313 0.10889,0.05335 0.10887,0.05351 0.1089,0.05371 0.10889,0.0539 0.10887,0.05406 0.1089,0.05423 0.10887,0.05444 0.10889,0.05461 0.1089,0.0548 0.10887,0.05497 0.10889,0.05516 0.10889,0.05535 0.1089,0.05551 0.10888,0.05573 0.10889,0.05589 0.10889,0.05607 0.10887,0.05625 0.1089,0.05643 0.10889,0.05664 0.10887,0.05679 0.1089,0.05698 0.10887,0.05717 0.10889,0.05734 0.1089,0.05756 0.10887,0.05768 0.10889,0.05791 0.10889,0.05805 0.10888,0.05829 0.10889,0.05843 0.1089,0.05863 0.10889,0.0588 0.10885,0.05899 0.10892,0.05917 0.10889,0.05934 0.10887,0.05956 0.1089,0.05971 0.10887,0.05989 0.10889,0.06009 0.1089,0.06029 0.10887,0.06042 0.10889,0.06064 0.10889,0.0608 0.10888,0.06101 0.10889,0.06117 0.10889,0.06136 0.10888,0.06154 0.10887,0.06172 0.10892,0.06192 0.10889,0.06208 0.10887,0.06228 0.1089,0.06245 0.10887,0.06262 0.10889,0.06285 0.1089,0.063 0.10888,0.06318 0.10888,0.06335 0.10889,0.06356 0.10889,0.06373 0.10888,0.06391 0.10889,0.0641 0.10889,0.06427 0.10886,0.06445 0.10891,0.06464 0.10889,0.06485 0.10887,0.06497 0.1089,0.06522 0.10887,0.06535 0.1089,0.06557 0.10889,0.06573 0.10889,0.06592 0.10888,0.0661 0.10887,0.06628 0.10891,0.06646 0.10888,0.06665 0.10887,0.06683 0.10891,0.06702 0.10887,0.06718 0.10889,0.06737 0.1089,0.0676 0.10887,0.06773 0.10888,0.06793 0.10889,0.0681 0.1089,0.06828 0.10889,0.06847 0.10889,0.06867 0.10888,0.06883 0.10887,0.06901 0.10891,0.0692 0.10888,0.0694 0.10888,0.06955 0.1089,0.06976 0.10887,0.06992 0.10889,0.07013 0.1089,0.07028 0.10887,0.07048 0.10889,0.07066 0.10888,0.07083 0.10889,0.07103 0.10889,0.07122 0.10888,0.07138 0.1089,0.07156 0.10886,0.07175 0.10892,0.07193 0.10888,0.07216 0.10888,0.07226 0.1089,0.07249 0.10887,0.07267 0.10889,0.07286 0.1089,0.07303 0.10887,0.07321 0.10889,0.07339 0.10888,0.07358 0.10889,0.07376 0.10889,0.07393 0.10888,0.07411 0.10889,0.07433 0.10887,0.07448 0.1089,0.07469 0.10889,0.07484 0.10887,0.07505 0.10892,0.07522 0.10887,0.07538 0.10889,0.07559 0.1089,0.07576 0.10887,0.07595 0.10889,0.07614 0.10888,0.07629 0.10889,0.07649 0.10889,0.07671 0.10888,0.07684 0.10889,0.07706 0.10887,0.07719 0.1089,0.07743 0.10889,0.07759 0.10887,0.07777 0.1089,0.07796 0.10888,0.07812 0.1089,0.07833 0.1089,0.07849 0.10887,0.07867 0.10889,0.07888 0.10888,0.07904 0.10889,0.07922 0.10889,0.07945 0.10888,0.07958 0.10889,0.07978 0.10887,0.07996 0.1089,0.08012 0.10889,0.08034 0.10887,0.08051 0.1089,0.08067 0.10888,0.08087 0.10888,0.08107 0.10891,0.08126 0.10887,0.08139 0.1089,0.08161 0.10889,0.08176 0.10888,0.08198 0.10889,0.08215 0.10888,0.08233 0.10889,0.08251 0.10887,0.08268 0.10891,0.08289 0.10888,0.08305 0.10887,0.08324 0.10891,0.08342 0.10887,0.0836 0.10888,0.08379 0.10891,0.084 0.10887,0.08412 0.10888,0.08438 0.10889,0.0845 0.10889,0.08469 0.1089,0.08488 0.10888,0.08509 0.1089,0.08523 0.10886,0.08542 0.10891,0.08562 0.10888,0.08578 0.10887,0.08599 0.10891,0.08618 0.10887,0.0863 0.10888,0.08655 0.10891,0.0867 0.10887,0.0869 0.10888,0.08707 0.10889,0.08724 0.10889,0.08745 0.10888,0.0876 0.10889,0.0878 0.10891,0.08799 0.10887,0.08816 0.1089,0.08835 0.10888,0.08855 0.10888,0.08867 0.1089,0.08893 0.10887,0.08904 0.10889,0.08928 0.1089,0.08945 0.10887,0.08961 0.10889,0.08982 0.10888,0.08998 0.10889,0.09016 0.10888,0.09036 0.1089,0.09054 0.10888,0.09071 0.10887,0.0909 0.1089,0.09108 0.1089,0.09129 0.10888,0.09143 0.1089,0.09165 0.10887,0.09179 0.10889,0.092 0.1089,0.09217 0.10887,0.09237 0.10889,0.09253 0.10888,0.09272 0.10889,0.0929 0.10888,0.09312 0.1089,0.09325 0.10888,0.09347 0.10887,0.0936 0.1089,0.09384 0.10889,0.094 0.10887,0.09419 0.10892,0.09436 0.10887,0.09454 0.10887,0.09472 0.10892,0.09492 0.10887,0.09509 0.10889,0.09528 0.10888,0.09544 0.10889,0.09566 0.10888,0.09583 0.1089,0.09599 0.10888,0.09621 0.10887,0.09637 0.1089,0.09654 0.10889,0.09673 0.10887,0.09694 0.1089,0.09709 0.10888,0.09727 0.10888,0.09746 0.10892,0.09764 0.10886,0.09783 0.1089,0.09804 0.10888,0.09817 0.10889,0.0984 0.10889,0.09856 0.10889,0.09874 0.10888,0.09891 0.10887,0.0991 0.1089,0.09929 0.10889,0.09947 0.10887,0.09964 0.10891,0.09984 0.10887,0.10002 0.10888,0.10021 0.10891,0.1004 0.10887,0.10052 0.10888,0.10079 0.10889,0.10089 0.10888,0.10114 0.10891,0.10128 0.10889,0.10149 0.10888,0.10165 0.10887,0.10184 0.10891,0.10202 0.10888,0.1022 0.10887,0.10239 0.10891,0.10257 0.10887,0.10274 0.10888,0.10293 0.10891,0.10315 0.10887,0.10331 0.10888,0.10346 0.10889,0.10368 0.10888,0.10383 0.10891,0.10403 0.10887,0.10421 0.1089,0.1044 0.10887,0.10457 0.10891,0.10476 0.10888,0.10497 0.10887,0.10508 0.10891,0.10534 0.10887,0.10546 0.10888,0.1057 0.10891,0.10585 0.10887,0.10604 0.10888,0.10621 0.10889,0.10639 0.10889,0.10658 0.10889,0.10675 0.10888,0.10695 0.10889,0.10713 0.10889,0.10732 0.10888,0.10748 0.1089,0.10769 0.10888,0.10784 0.1089,0.10806 0.10887,0.10823 0.10889,0.1084 0.1089,0.1086 0.10887,0.10876 0.10889,0.10893 0.10888,0.10914 0.10889,0.10932 0.10889,0.1095 0.10888,0.10968 0.10889,0.1099 0.10887,0.11 0.1089,0.11026 0.1089,0.11041 0.10886,0.11059 0.1089,0.11077 0.10889,0.11096 0.10889,0.11115 0.1089,0.11131 0.10887,0.11149 0.10889,0.1117 0.10888,0.11186 0.10889,0.11206 0.10889,0.11224 0.10888,0.1124 0.10889,0.11263 0.10887,0.11274 0.1089,0.11299 0.10889,0.11315 0.10887,0.11333 0.1089,0.11352 0.10888,0.11368 0.10888,0.11388 0.10892,0.11404 0.10887,0.11424 0.10889,0.11443 0.10888,0.11461 0.10889,0.11482 0.10889,0.11496 0.10888,0.11514 0.10889,0.11534 0.10887,0.11553 0.1089,0.11569 0.10889,0.11584 0.10887,0.11608 0.1089,0.11622 0.10888,0.11647 0.10888,0.11657 0.1089,0.11686 0.10888,0.11696 0.10888,0.11718 0.1089,0.11729 0.10889,0.11758 0.10889,0.11768 0.10888,0.1179 0.10889,0.11801 0.10887,0.11829 0.10891,0.11841 0.10888,0.11862 0.10887,0.11881 0.1089,0.11895 0.10888,0.11919 0.10888,0.11934 0.10891,0.11957 0.10887,0.11969 0.10888,0.11988 0.10889,0.12009 0.10889,0.12024 0.1089,0.12046 0.10889,0.12063 0.10887,0.12079 0.10888,0.12094 0.10891,0.1212 0.10888,0.12134 0.10887,0.12156 0.1089,0.12174 0.10888,0.12186 0.10888,0.12213 0.10891,0.12223 0.10887,0.12246 0.10888,0.12263 0.10889,0.12279 0.10889,0.123 0.10888,0.12318 0.10889,0.12336 0.10889,0.12352 0.10887,0.12373 0.10892,0.12389 0.10888,0.12412 0.10887,0.12424 0.1089,0.12447 0.10888,0.12462 0.10889,0.12484 0.1089,0.12502 0.10887,0.12512 0.10889,0.12541 0.10888,0.12551 0.10889,0.12573 0.10889,0.1259 0.10888,0.12613 0.10889,0.12624 0.10887,0.12646 0.1089,0.12668 0.10889,0.12685 0.10888,0.12693 0.10889,0.12725 0.10889,0.12735 0.10889,0.12756 0.1089,0.12775 0.10887,0.12788 0.10889,0.12808 0.10888,0.12828 0.10889,0.12847 0.10889,0.12866 0.10888,0.1288 0.10889,0.12906 0.10887,0.12913 0.1089,0.1294 0.10889,0.12956 0.10887,0.12974 0.10891,0.12996 0.10886,0.13007 0.10889,0.13028 0.1089,0.13046 0.10889,0.13068 0.10889,0.13084 0.10887,0.13101 0.1089,0.13118 0.10889,0.13141 0.10887,0.1315 0.1089,0.13179 0.10887,0.13196 0.10889,0.13207 0.1089,0.13229 0.10887,0.13251 0.10889,0.13261 0.10889,0.13286 0.10888,0.133 0.10889,0.13323 0.1089,0.13341 0.10887,0.13356 0.10887,0.13373 0.10892,0.13394 0.10889,0.13414 0.10887,0.13429 0.1089,0.13451 0.10887,0.13461 0.10889,0.13485 0.1089,0.13502 0.10888,0.13522 0.10888,0.13539 0.10889,0.13556 0.10888,0.13574 0.10889,0.13602 0.10889,0.13605 0.10888,0.13635 0.10887,0.13645 0.10892,0.13669 0.10887,0.13688 0.10889,0.13703 0.1089,0.13722 0.10887,0.13741 0.10889,0.13755 0.1089,0.13773 0.10888,0.13795 0.10888,0.13814 0.10889,0.13833 0.10888,0.13851 0.10889,0.13867 0.10889,0.13884 0.10888,0.13907 0.10888,0.13918 0.1089,0.1394 0.10888,0.1396 0.10888,0.13974 0.1089,0.13996 0.10887,0.14018 0.1089,0.14027 0.1089,0.14057 0.10888,0.14062 0.10888,0.1409 0.10889,0.14099 0.10888,0.14125 0.10889,0.14145 0.10889,0.14156 0.10888,0.14178 0.10888,0.14196 0.1089,0.14212 0.10888,0.14233 0.10888,0.1425 0.1089,0.14269 0.10887,0.14283 0.10888,0.14307 0.10891,0.14328 0.10889,0.14334 0.10888,0.14368 0.10887,0.14378 0.10891,0.14395 0.10888,0.14413 0.10889,0.14434 0.10889,0.14449 0.10887,0.14468 0.1089,0.14491 0.10889,0.14505 0.10887,0.14522 0.1089,0.14546 0.10887,0.14555 0.10888,0.14585 0.10891,0.14595 0.10887,0.14612 0.10889,0.14635 0.10888,0.1465 0.10891,0.14673 0.10888,0.14683 0.10889,0.14707 0.10889,0.14727 0.10887,0.1474 0.1089,0.14761 0.10889,0.14785 0.10887,0.14796 0.1089,0.14815 0.10887,0.1483 0.10889,0.14856 0.1089,0.14873 0.10887,0.14883 0.10889,0.14911 0.10888,0.14925 0.10889,0.14944 0.10889,0.1496 0.10888,0.14979 0.10891,0.14995"
                           style="fill:none;stroke:#ffffff;stroke-width:0.79701;stroke-linecap:butt;stroke-linejoin:miter;stroke-miterlimit:10;stroke-dasharray:none;stroke-opacity:1"
                           id="path80"
                           inkscape:connector-curvature="0" /></g></g></g><g
                     id="g82"><g
                       id="g84"
                       transform="translate(105.012,-2.145)"><g
                         id="g86"><g
                           id="g88"
                           transform="translate(-114.173,-5.322)"><text
   transform="matrix(1,0,0,-1,114.173,5.322)"
   style="font-variant:normal;font-weight:normal;font-size:9.96259975px;font-family:CMMI10;-inkscape-font-specification:CMMI10;writing-mode:lr-tb;fill:#000000;fill-opacity:1;fill-rule:nonzero;stroke:none"
   id="text92"><tspan
     x="0"
     y="0"
     id="tspan90">푥</tspan></text>

<g
   id="g94"
   transform="translate(114.173,5.322)" /></g></g><g
                         id="g96"
                         transform="translate(-105.012,2.145)" /></g></g><g
                     id="g98"><g
                       id="g100" /><g
                       id="g102"
                       transform="translate(-3.944,86.496)"><g
                         id="g104"><g
                           id="g106"
                           transform="translate(-5.217,-93.963)"><text
   transform="matrix(1,0,0,-1,5.217,93.963)"
   style="font-variant:normal;font-weight:normal;font-size:9.96259975px;font-family:CMMI10;-inkscape-font-specification:CMMI10;writing-mode:lr-tb;fill:#000000;fill-opacity:1;fill-rule:nonzero;stroke:none"
   id="text110"><tspan
     x="0"
     y="0"
     id="tspan108">푈</tspan></text>

<g
   id="g112"
   transform="translate(5.217,93.963)" /></g></g><g
                         id="g114"
                         transform="translate(3.944,-86.496)" /></g></g></g></g><g
                 id="g116"
                 transform="translate(-9.161,-7.467)" /></g><g
               id="g118"
               transform="translate(0.199,0.199)" /></g><g
             id="g120" /><g
             id="g122" /></g></g><path
         style="fill:#d9d9ff;fill-opacity:1;stroke:#9090ff;stroke-width:0.48510888;stroke-linecap:butt;stroke-linejoin:miter;stroke-miterlimit:4;stroke-dasharray:none;stroke-opacity:1"
         d="m 22.366153,7.4536877 c 0,0 1.3e-5,45.3597133 30.004937,44.8655503 C 82.288584,51.826516 82.288584,7.4536877 82.288584,7.4536877"
         id="path929"
         inkscape:connector-curvature="0"
         sodipodi:nodetypes="csc" /><rect
         style="fill:#ffffff;fill-opacity:1;stroke:none;stroke-width:0.75118107;stroke-miterlimit:4;stroke-dasharray:none;stroke-dashoffset:0;stroke-opacity:1"
         id="rect870"
         width="13.403346"
         height="15"
         x="3.5510001"
         y="-104.801"
         transform="scale(1,-1)" /><rect
         style="fill:#ffffff;fill-opacity:1;stroke:none;stroke-width:0.75118107;stroke-miterlimit:4;stroke-dasharray:none;stroke-dashoffset:0;stroke-opacity:1"
         id="rect870-3"
         width="13.403346"
         height="15"
         x="110.14766"
         y="-18.551004"
         transform="scale(1,-1)" /><text
         id="text889"
         xml:space="preserve"
         style="font-size:7.5px;font-family:'Iosevka Term';-inkscape-font-specification:'Iosevka Term, Normal';fill:#000000;fill-opacity:1;stroke:none;stroke-width:0.75"
         x="2.0077081"
         y="-91.275986"
         transform="scale(1,-1)"><tspan
           id="tspan887"
           sodipodi:role="line"
           x="2.0077081"
           y="-91.275986"
           style="stroke-width:0.75">$U$</tspan></text>
<text
         id="text903"
         xml:space="preserve"
         style="font-size:7.5px;font-family:'Iosevka Term';-inkscape-font-specification:'Iosevka Term, Normal';fill:#000000;fill-opacity:1;stroke:none;stroke-width:0.75"
         x="108.29884"
         y="-5.4496355"
         transform="scale(1,-1)"><tspan
           id="tspan901"
           sodipodi:role="line"
           x="108.29884"
           y="-5.4496355"
           style="stroke-width:0.75">$x$</tspan></text>
<path
         style="fill:none;stroke:#000000;stroke-width:0.30000001;stroke-linecap:butt;stroke-linejoin:miter;stroke-opacity:1;marker-end:url(#ExperimentalArrow);stroke-miterlimit:3.79999995;stroke-dasharray:none;marker-start:url(#DotM)"
         d="M 52.301001,52.301003 H 82.301002"
         id="path923"
         inkscape:connector-curvature="0" /><path
         style="fill:none;stroke:#000000;stroke-width:0.18371175;stroke-linecap:butt;stroke-linejoin:miter;stroke-miterlimit:3.79999995;stroke-dasharray:none;stroke-opacity:1;marker-start:url(#DotM-6);marker-end:url(#ExperimentalArrow-5)"
         d="m 78.551002,29.801005 h 11.25"
         id="path923-5"
         inkscape:connector-curvature="0" /><path
         style="fill:none;stroke:#000000;stroke-width:0.18371175;stroke-linecap:butt;stroke-linejoin:miter;stroke-miterlimit:3.79999995;stroke-dasharray:none;stroke-opacity:1;marker-start:url(#DotM-6-6);marker-end:url(#ExperimentalArrow-5-9)"
         d="M 26.051001,29.801005 H 37.300998"
         id="path923-5-2"
         inkscape:connector-curvature="0" /><path
         style="fill:none;stroke:#000000;stroke-width:0.15000002;stroke-linecap:butt;stroke-linejoin:miter;stroke-miterlimit:3.79999995;stroke-dasharray:none;stroke-opacity:1;marker-start:url(#DotM-6-7);marker-end:url(#ExperimentalArrow-5-93)"
         d="m 82.301002,7.3010044 h 7.5"
         id="path923-5-0"
         inkscape:connector-curvature="0" /><path
         style="fill:none;stroke:#000000;stroke-width:0.15000002;stroke-linecap:butt;stroke-linejoin:miter;stroke-miterlimit:3.79999995;stroke-dasharray:none;stroke-opacity:1;marker-start:url(#DotM-6-7-6);marker-end:url(#ExperimentalArrow-5-93-6)"
         d="M 22.301001,7.3010044 H 29.801"
         id="path923-5-0-8"
         inkscape:connector-curvature="0" /></g></g></svg>