<?xml version="1.0" encoding="UTF-8" standalone="no"?>
<!-- Created with Inkscape (http://www.inkscape.org/) -->

<svg
   xmlns:dc="http://purl.org/dc/elements/1.1/"
   xmlns:cc="http://creativecommons.org/ns#"
   xmlns:rdf="http://www.w3.org/1999/02/22-rdf-syntax-ns#"
   xmlns:svg="http://www.w3.org/2000/svg"
   xmlns="http://www.w3.org/2000/svg"
   xmlns:sodipodi="http://sodipodi.sourceforge.net/DTD/sodipodi-0.dtd"
   xmlns:inkscape="http://www.inkscape.org/namespaces/inkscape"
   version="1.1"
   id="svg2"
   xml:space="preserve"
   width="430.60974"
   height="225.77628"
   viewBox="0 0 430.60974 225.77627"
   sodipodi:docname="8.svg"
   inkscape:version="0.92.4 (5da689c313, 2019-01-14)"><metadata
     id="metadata8"><rdf:RDF><cc:Work
         rdf:about=""><dc:format>image/svg+xml</dc:format><dc:type
           rdf:resource="http://purl.org/dc/dcmitype/StillImage" /><dc:title></dc:title></cc:Work></rdf:RDF></metadata><defs
     id="defs6" /><sodipodi:namedview
     pagecolor="#ffffff"
     bordercolor="#666666"
     borderopacity="1"
     objecttolerance="10"
     gridtolerance="10"
     guidetolerance="10"
     inkscape:pageopacity="0"
     inkscape:pageshadow="2"
     inkscape:window-width="640"
     inkscape:window-height="480"
     id="namedview4"
     showgrid="false"
     inkscape:zoom="0.21021376"
     inkscape:cx="201.01989"
     inkscape:cy="46.129446"
     inkscape:window-x="0"
     inkscape:window-y="0"
     inkscape:window-maximized="0"
     inkscape:current-layer="g10" /><g
     id="g10"
     inkscape:groupmode="layer"
     inkscape:label="A9R13oaw49_1w1iuxo_aq4"
     transform="matrix(1.3333333,0,0,-1.3333333,-195.79343,740.98016)"><path
       d="m 181.2,407.54 h 273.42 v -1.5 H 181.2 Z m 272.4,2.28 6,-3 -6,-3"
       style="fill:#000000;fill-opacity:1;fill-rule:nonzero;stroke:none"
       id="path12"
       inkscape:connector-curvature="0" /><path
       d="m 312.72,406.82 h -1.5 v 141.36 h 1.5 z m -1.5,0 z m -2.22,140.4 3,6 3,-6"
       style="fill:#000000;fill-opacity:1;fill-rule:nonzero;stroke:none"
       id="path14"
       inkscape:connector-curvature="0" /><g
       id="g16"
       transform="translate(189.6,538.46)"><path
         d="m 0,0 c 30.9,-49.74 61.86,-99.54 88.86,-118.5 27,-18.96 48.66,-15.3 73.14,4.8 24.48,20.1 61.74,96.6 73.8,115.86"
         style="fill:none;stroke:#000000;stroke-width:1.5;stroke-linecap:butt;stroke-linejoin:round;stroke-miterlimit:10;stroke-dasharray:12, 4.5;stroke-dashoffset:0;stroke-opacity:1"
         id="path18"
         inkscape:connector-curvature="0" /></g><g
       id="g20"
       transform="translate(348.24,542.72)"><path
         d="m 0,0 -30.9,-24.48 -0.24,-0.12 -0.3,0.18 -0.06,0.24 0.12,0.24 30.9,24.54 0.3,0.06 0.24,-0.12 0.06,-0.3 z m -28.5,-25.92 -6.54,-1.38 2.82,6.06"
         style="fill:#000000;fill-opacity:1;fill-rule:nonzero;stroke:none"
         id="path22"
         inkscape:connector-curvature="0" /></g><text
       transform="matrix(1,0,0,-1,342,543.8)"
       style="font-variant:normal;font-weight:normal;font-stretch:normal;font-size:12px;font-family:'Times New Roman';-inkscape-font-specification:TimesNewRomanPSMT;writing-mode:lr-tb;fill:#000000;fill-opacity:1;fill-rule:nonzero;stroke:none"
       id="text26"><tspan
         x="0 6.4176002 11.7312 18.1488 23.3904 29.388"
         y="0"
         sodipodi:role="line"
         id="tspan24">центры</tspan></text>
<text
       transform="matrix(1,0,0,-1,326.1,480.38)"
       style="font-variant:normal;font-weight:normal;font-stretch:normal;font-size:12px;font-family:'Times New Roman';-inkscape-font-specification:TimesNewRomanPSMT;writing-mode:lr-tb;fill:#000000;fill-opacity:1;fill-rule:nonzero;stroke:none"
       id="text30"><tspan
         x="0 8.4924002 13.8048 19.0452 25.041599 31.458 37.478401 43.894798 49.555199 57.6036"
         y="0"
         sodipodi:role="line"
         id="tspan28">Устойчивые</tspan></text>
<text
       transform="matrix(1,0,0,-1,338.04,466.4)"
       style="font-variant:normal;font-weight:normal;font-stretch:normal;font-size:12px;font-family:'Times New Roman';-inkscape-font-specification:TimesNewRomanPSMT;writing-mode:lr-tb;fill:#000000;fill-opacity:1;fill-rule:nonzero;stroke:none"
       id="text34"><tspan
         x="0 7.7772002 13.7904 19.5396 25.660801 30.99"
         y="0"
         sodipodi:role="line"
         id="tspan32">фокусы</tspan></text>
<text
       transform="matrix(1,0,0,-1,232.44,521.78)"
       style="font-variant:normal;font-weight:normal;font-stretch:normal;font-size:12px;font-family:'Times New Roman';-inkscape-font-specification:TimesNewRomanPSMT;writing-mode:lr-tb;fill:#000000;fill-opacity:1;fill-rule:nonzero;stroke:none"
       id="text38"><tspan
         x="0 8.6520004 13.956 20.076 25.403999 30.636 36.624001 43.032001 49.043999 55.452 61.032001 69.071999"
         y="0"
         sodipodi:role="line"
         id="tspan36">Неустойчивые</tspan></text>
<text
       transform="matrix(1,0,0,-1,250.14,507.8)"
       style="font-variant:normal;font-weight:normal;font-stretch:normal;font-size:12px;font-family:'Times New Roman';-inkscape-font-specification:TimesNewRomanPSMT;writing-mode:lr-tb;fill:#000000;fill-opacity:1;fill-rule:nonzero;stroke:none"
       id="text42"><tspan
         x="0 7.7772002 13.7904 19.5396 25.660801 30.99"
         y="0"
         sodipodi:role="line"
         id="tspan40">фокусы</tspan></text>
<text
       transform="matrix(1,0,0,-1,146.64,471.98)"
       style="font-variant:normal;font-weight:normal;font-stretch:normal;font-size:12px;font-family:'Times New Roman';-inkscape-font-specification:TimesNewRomanPSMT;writing-mode:lr-tb;fill:#000000;fill-opacity:1;fill-rule:nonzero;stroke:none"
       id="text46"><tspan
         x="0 8.6520004 13.956 20.076 25.403999 30.636 36.624001 43.032001 49.043999 55.452 61.032001 69.071999"
         y="0"
         sodipodi:role="line"
         id="tspan44">Неустойчивые</tspan></text>
<text
       transform="matrix(1,0,0,-1,171.48,458)"
       style="font-variant:normal;font-weight:normal;font-stretch:normal;font-size:12px;font-family:'Times New Roman';-inkscape-font-specification:TimesNewRomanPSMT;writing-mode:lr-tb;fill:#000000;fill-opacity:1;fill-rule:nonzero;stroke:none"
       id="text50"><tspan
         x="0 6.0215998 10.7832 16.792801"
         y="0"
         sodipodi:role="line"
         id="tspan48">узлы</tspan></text>
<text
       transform="matrix(1,0,0,-1,392.4,449.18)"
       style="font-variant:normal;font-weight:normal;font-stretch:normal;font-size:12px;font-family:'Times New Roman';-inkscape-font-specification:TimesNewRomanPSMT;writing-mode:lr-tb;fill:#000000;fill-opacity:1;fill-rule:nonzero;stroke:none"
       id="text54"><tspan
         x="0 8.4924002 13.8048 19.0452 25.041599 31.458 37.478401 43.894798 49.555199 57.6036"
         y="0"
         sodipodi:role="line"
         id="tspan52">Устойчивые</tspan></text>
<text
       transform="matrix(1,0,0,-1,411.48,435.2)"
       style="font-variant:normal;font-weight:normal;font-stretch:normal;font-size:12px;font-family:'Times New Roman';-inkscape-font-specification:TimesNewRomanPSMT;writing-mode:lr-tb;fill:#000000;fill-opacity:1;fill-rule:nonzero;stroke:none"
       id="text58"><tspan
         x="0 6.0215998 10.7832 16.792801"
         y="0"
         sodipodi:role="line"
         id="tspan56">узлы</tspan></text>
<text
       transform="matrix(1,0,0,-1,458.7,387.32)"
       style="font-variant:normal;font-weight:normal;font-stretch:normal;font-size:7.98000002px;font-family:'Times New Roman';-inkscape-font-specification:TimesNewRomanPSMT;writing-mode:lr-tb;fill:#000000;fill-opacity:1;fill-rule:nonzero;stroke:none"
       id="text62"><tspan
         x="0"
         y="0"
         id="tspan60">1</tspan></text>
<text
       transform="matrix(0.94619039,0,-0.3236105,-0.94619039,451.8,388.82)"
       style="font-variant:normal;font-weight:normal;font-stretch:normal;font-size:12.69828987px;font-family:Symbol;-inkscape-font-specification:SymbolMT;writing-mode:lr-tb;fill:#000000;fill-opacity:1;fill-rule:nonzero;stroke:none"
       id="text66"><tspan
         x="0"
         y="0"
         id="tspan64">μ</tspan></text>
<text
       transform="matrix(1,0,0,-1,303.3,549.92)"
       style="font-variant:normal;font-weight:normal;font-stretch:normal;font-size:7.98000002px;font-family:'Times New Roman';-inkscape-font-specification:TimesNewRomanPSMT;writing-mode:lr-tb;fill:#000000;fill-opacity:1;fill-rule:nonzero;stroke:none"
       id="text70"><tspan
         x="0"
         y="0"
         id="tspan68">2</tspan></text>
<text
       transform="matrix(0.94619039,0,-0.3236105,-0.94619039,427.8,544.82)"
       style="font-variant:normal;font-weight:normal;font-stretch:normal;font-size:12.69828987px;font-family:Symbol;-inkscape-font-specification:SymbolMT;writing-mode:lr-tb;fill:#000000;fill-opacity:1;fill-rule:nonzero;stroke:none"
       id="text74"><tspan
         x="0"
         y="0"
         id="tspan72">μ</tspan></text>
<text
       transform="matrix(1,0,0,-1,434.7,543.32)"
       style="font-variant:normal;font-weight:normal;font-stretch:normal;font-size:7.98000002px;font-family:'Times New Roman';-inkscape-font-specification:TimesNewRomanPSMT;writing-mode:lr-tb;fill:#000000;fill-opacity:1;fill-rule:nonzero;stroke:none"
       id="text78"><tspan
         x="0 17.69964"
         y="0"
         sodipodi:role="line"
         id="tspan76">21</tspan></text>
<text
       transform="matrix(1,0,0,-1,438.72,544.82)"
       style="font-variant:normal;font-weight:normal;font-stretch:normal;font-size:12px;font-family:'Times New Roman';-inkscape-font-specification:TimesNewRomanPSMT;writing-mode:lr-tb;fill:#000000;fill-opacity:1;fill-rule:nonzero;stroke:none"
       id="text82"><tspan
         x="0"
         y="0"
         id="tspan80">=</tspan></text>
<text
       transform="matrix(0.94619039,0,-0.3236105,-0.94619039,445.5,544.82)"
       style="font-variant:normal;font-weight:normal;font-stretch:normal;font-size:12.69828987px;font-family:Symbol;-inkscape-font-specification:SymbolMT;writing-mode:lr-tb;fill:#000000;fill-opacity:1;fill-rule:nonzero;stroke:none"
       id="text86"><tspan
         x="0"
         y="0"
         id="tspan84">μ</tspan></text>
<text
       transform="matrix(1,0,0,-1,456.4219,550.3424)"
       style="font-variant:normal;font-weight:normal;font-stretch:normal;font-size:7.98000002px;font-family:'Times New Roman';-inkscape-font-specification:TimesNewRomanPSMT;writing-mode:lr-tb;fill:#000000;fill-opacity:1;fill-rule:nonzero;stroke:none"
       id="text90"><tspan
         x="0"
         y="0"
         id="tspan88">2</tspan></text>
<text
       transform="matrix(1,0,0,-1,460.44,544.82)"
       style="font-variant:normal;font-weight:normal;font-stretch:normal;font-size:12px;font-family:'Times New Roman';-inkscape-font-specification:TimesNewRomanPSMT;writing-mode:lr-tb;fill:#000000;fill-opacity:1;fill-rule:nonzero;stroke:none"
       id="text94"><tspan
         x="0 3.3492 9.3624001"
         y="0"
         sodipodi:role="line"
         id="tspan92">/4 </tspan></text>
</g></svg>